<?xml version="1.0" standalone="no"?>
<!DOCTYPE svg PUBLIC "-//W3C//DTD SVG 20010904//EN"
 "http://www.w3.org/TR/2001/REC-SVG-20010904/DTD/svg10.dtd">
<svg version="1.0" xmlns="http://www.w3.org/2000/svg"
 width="512.000000pt" height="512.000000pt" viewBox="0 0 512.000000 512.000000"
 preserveAspectRatio="xMidYMid meet">
<metadata>
Created by potrace 1.11, written by Peter Selinger 2001-2013
</metadata>
<g transform="translate(0.000000,512.000000) scale(0.100000,-0.100000)"
fill="#000000" stroke="none">
<path d="M0 2560 l0 -2560 2560 0 2560 0 0 2560 0 2560 -2560 0 -2560 0 0
-2560z m340 2536 c0 -2 -7 -7 -16 -10 -8 -3 -12 -2 -9 4 6 10 25 14 25 6z
m221 -33 c13 -16 12 -17 -3 -4 -10 7 -18 15 -18 17 0 8 8 3 21 -13z m-138 0
c-7 -2 -21 -2 -30 0 -10 3 -4 5 12 5 17 0 24 -2 18 -5z m272 -11 c-3 -3 -11 0
-18 7 -9 10 -8 11 6 5 10 -3 15 -9 12 -12z m-395 -32 c0 -5 -5 -10 -11 -10 -5
0 -7 5 -4 10 3 6 8 10 11 10 2 0 4 -4 4 -10z m380 0 c0 -5 -5 -10 -11 -10 -5
0 -7 5 -4 10 3 6 8 10 11 10 2 0 4 -4 4 -10z m-313 -22 c-3 -8 -6 -5 -6 6 -1
11 2 17 5 13 3 -3 4 -12 1 -19z m65 -55 c-6 -2 -9 -10 -6 -15 4 -7 2 -8 -5 -4
-13 9 -5 26 12 25 9 0 8 -2 -1 -6z m813 -81 c-3 -3 -11 0 -18 7 -9 10 -8 11 6
5 10 -3 15 -9 12 -12z m1133 -112 c2 -31 -68 -145 -641 -1040 l-643 -1005 -40
0 c-39 0 -39 0 -39 40 0 40 49 119 1239 1973 45 71 48 73 84 70 34 -3 37 -5
40 -38z m-520 -20 c2 -32 -60 -129 -641 -995 l-644 -960 -44 0 c-43 0 -44 1
-47 34 -2 22 3 40 16 55 11 11 286 419 612 906 326 487 611 911 632 943 37 55
41 58 76 55 34 -3 37 -6 40 -38z m2140 -515 l2 -450 -338 -338 -337 -337 -525
2 -525 3 -3 485 -2 485 302 302 303 303 560 -2 560 -3 3 -450z m-2873 345 c-3
-5 -12 -10 -18 -10 -7 0 -6 4 3 10 19 12 23 12 15 0z m2795 -1000 c0 -5 -5
-10 -11 -10 -5 0 -7 5 -4 10 3 6 8 10 11 10 2 0 4 -4 4 -10z m-333 -392 c-3
-8 -6 -5 -6 6 -1 11 2 17 5 13 3 -3 4 -12 1 -19z m10 -173 c0 -8 -4 -12 -9 -9
-4 3 -8 9 -8 15 0 5 4 9 8 9 5 0 9 -7 9 -15z m300 -170 c0 -8 -4 -15 -9 -15
-4 0 -8 7 -8 15 0 8 4 15 8 15 5 0 9 -7 9 -15z m-2 -35 c3 -5 1 -10 -4 -10 -6
0 -11 5 -11 10 0 6 2 10 4 10 3 0 8 -4 11 -10z m5 -41 c0 -5 -4 -9 -10 -9 -5
0 -10 7 -10 16 0 8 5 12 10 9 6 -3 10 -10 10 -16z m-145 -37 c-3 -3 -11 0 -18
7 -9 10 -8 11 6 5 10 -3 15 -9 12 -12z m142 3 c0 -8 -4 -15 -9 -15 -4 0 -8 7
-8 15 0 8 4 15 8 15 5 0 9 -7 9 -15z m-460 -37 c33 -12 66 -34 92 -63 33 -35
41 -40 41 -25 0 11 5 20 10 20 6 0 10 -21 10 -47 -1 -27 -1 -79 -1 -116 1
-118 -41 -189 -144 -241 -28 -14 -42 -26 -31 -26 34 0 131 -60 157 -98 15 -21
32 -58 39 -82 26 -96 -14 -238 -83 -296 -114 -97 -325 -118 -529 -54 -66 20
-68 22 -68 54 l0 34 63 -23 c290 -104 547 -21 557 180 4 73 0 103 -13 117 -8
7 -12 18 -10 24 5 15 -62 73 -106 92 -24 9 -87 17 -186 21 l-150 6 -1 28 -1
27 111 0 c130 0 204 17 254 58 67 54 97 149 72 236 -42 150 -268 189 -481 83
l-67 -34 -12 25 c-12 28 -11 29 50 61 62 33 133 53 210 60 95 9 152 3 217 -21z
m473 -3 c0 -2 -7 -5 -15 -9 -9 -3 -15 0 -15 9 0 9 6 12 15 9 8 -4 15 -7 15 -9z
m-10 -40 c7 -9 8 -15 2 -15 -5 0 -12 7 -16 15 -3 8 -4 15 -2 15 2 0 9 -7 16
-15z m-103 -31 c-3 -3 -12 -4 -19 -1 -8 3 -5 6 6 6 11 1 17 -2 13 -5z m108
-13 c3 -5 1 -12 -5 -16 -5 -3 -10 1 -10 9 0 18 6 21 15 7z m1 -86 c1 -19 -2
-35 -6 -35 -5 0 -8 16 -8 35 0 46 13 46 14 0z m4 -77 c0 -5 -4 -8 -10 -8 -5 0
-10 10 -10 23 0 18 2 19 10 7 5 -8 10 -18 10 -22z m-1607 -83 c287 -50 412
-191 411 -465 0 -58 -5 -129 -12 -158 -36 -161 -148 -279 -312 -331 -112 -35
-189 -43 -415 -45 l-220 -1 -3 -382 -2 -383 -30 0 -30 0 0 890 0 890 264 0
c189 0 288 -4 349 -15z m1047 -45 c0 -5 -13 -10 -30 -10 -16 0 -30 5 -30 10 0
6 14 10 30 10 17 0 30 -4 30 -10z"/>
<path d="M2670 4315 l-265 -265 430 0 430 0 265 265 265 265 -430 0 -430 0
-265 -265z"/>
<path d="M3618 4253 l-288 -288 0 -360 0 -360 290 290 290 290 -2 358 -3 357
-287 -287z"/>
<path d="M2360 3570 l0 -390 440 0 440 0 0 390 0 390 -440 0 -440 0 0 -390z"/>
<path d="M1761 2302 c-8 -3 -11 -139 -11 -454 l0 -450 238 5 c262 6 344 18
449 68 77 37 153 117 185 197 20 50 23 74 23 202 0 136 -2 149 -26 201 -37 78
-91 134 -163 168 -103 49 -193 62 -453 65 -127 1 -236 0 -242 -2z"/>
</g>
</svg>
